#!OML:ASF Y:\EmotionMaleHayes\Project 1\Capture day 1\Session 1\Male1.ASF
:FULLY-SPECIFIED
:DEGREES
17
root -25.3656 16.7429 -0.5102 114.069 78.0484 110.934
lowerback 14.411 -3.46489 -17.3691
upperback 2.32455 -7.09673 -2.37635
thorax -3.72274 -3.20223 8.23881
lowerneck -30.4119 4.54432 2.62634
upperneck 15.8892 4.76459 1.39387
head 9.97386 2.55413 0.887134
rclavicle -2.32578e-014 1.66979e-014
rhumerus -88.9101 14.1136 -95.0369
rradius 93.177
rwrist -23.2541
rhand -29.1929 -26.4164
rfingers 7.12502
rthumb -2.53805 -56.381
lclavicle -2.32578e-014 1.66979e-014
lhumerus -17.23 -21.4613 87.0606
lradius 104.969
lwrist 14.4939
lhand -40.838 -42.0102
lfingers 7.12502
lthumb -13.7755 -12.4863
rfemur -45.4157 -5.74067 8.34689
rtibia 88.7179
rfoot 135.97 71.6641
rtoes 10.9122
lfemur 19.4388 -2.48608 -36.785
ltibia 13.2593
lfoot -11.1567 1.01366
ltoes -13.1001
18
root -24.8514 16.8688 -0.512465 115.119 78.4685 111.799
lowerback 14.104 -3.70873 -17.2487
upperback 2.12664 -7.3678 -2.01019
thorax -3.66835 -3.34442 8.58067
lowerneck -30.2945 4.8865 3.09104
upperneck 16.1303 5.14954 0.903304
head 10.0708 2.69538 0.705545
rclavicle -3.6477e-014 -2.5842e-014
rhumerus -90.4796 14.3814 -95.1863
rradius 93.7818
rwrist -23.3859
rhand -29.271 -25.8786
rfingers 7.12502
rthumb -2.61339 -55.8423
lclavicle -3.6477e-014 -2.5842e-014
lhumerus -17.537 -21.9951 87.1641
lradius 106.874
lwrist 16.3464
lhand -41.0627 -43.3117
lfingers 7.12502
lthumb -13.992 -13.8026
rfemur -45.5968 -5.38266 9.22783
rtibia 88.7725
rfoot 17.1596 65.9115
rtoes 11.3879
lfemur 21.1955 -1.89484 -35.4619
ltibia 12.0748
lfoot -6.71111 0.818869
ltoes -12.5476
19
root -24.3391 16.9961 -0.513279 115.325 78.8806 111.764
lowerback 13.8354 -3.86219 -17.1711
upperback 1.8713 -7.54336 -1.69752
thorax -3.72369 -3.42446 8.88446
lowerneck -30.3519 5.17683 3.56985
upperneck 16.5309 5.45025 0.42766
head 10.258 2.80004 0.519891
rclavicle 3.65764e-014 2.22639e-014
rhumerus -91.9795 14.4543 -95.2439
rradius 94.3078
rwrist -23.1316
rhand -29.1203 -25.7091
rfingers 7.12502
rthumb -2.46793 -55.6746
lclavicle 3.65764e-014 2.22639e-014
lhumerus -18.1066 -22.7934 87.3478
lradius 108.97
lwrist 17.6755
lhand -41.5423 -43.3988
lfingers 7.12502
lthumb -14.4542 -13.9222
rfemur -45.6875 -4.82557 10.0178
rtibia 83.3649
rfoot -1.69474 32.0767
rtoes 9.37826
lfemur 22.7182 -1.25197 -34.1842
ltibia 11.0159
lfoot -2.01238 1.11299
ltoes -10.0023
20
root -23.8213 17.1218 -0.516263 114.611 78.9417 110.847
lowerback 13.6218 -3.94946 -17.6493
upperback 1.58921 -7.72018 -1.32112
thorax -3.75334 -3.49602 9.5636
lowerneck -30.2166 5.41505 3.76424
upperneck 16.8231 5.79045 0.0433261
head 10.3668 2.9163 0.41174
rclavicle -1.93815e-014 -5.96354e-015
rhumerus -93.3647 14.713 -95.0583
rradius 94.842
rwrist -23.0795
rhand -28.8746 -25.5234
rfingers 7.12502
rthumb -2.23059 -55.4915
lclavicle -1.93815e-014 -5.96354e-015
lhumerus -18.8853 -23.4972 87.8249
lradius 110.953
lwrist 18.6327
lhand -41.831 -42.4418
lfingers 7.12502
lthumb -14.7324 -12.9853
rfemur -45.3728 -4.36367 10.2524
rtibia 76.2574
rfoot -10.0353 -2.70707
rtoes 8.59718
lfemur 24.0764 -0.453264 -33.2597
ltibia 10.1738
lfoot 2.97191 1.81173
ltoes -6.0506
21
root -23.3017 17.2368 -0.513945 114.714 78.9429 110.719
lowerback 13.2594 -4.14112 -17.9632
upperback 1.39732 -7.9672 -1.06779
thorax -3.61522 -3.62293 10.0004
lowerneck -29.9553 5.59733 3.69918
upperneck 17.0467 6.09091 -0.00107627
head 10.4106 3.04312 0.455721
rclavicle -6.24184e-014 -3.49861e-014
rhumerus -94.4195 14.87 -94.9883
rradius 95.2162
rwrist -23.278
rhand -28.6105 -24.8145
rfingers 7.12502
rthumb -1.97551 -54.7851
lclavicle -6.24184e-014 -3.49861e-014
lhumerus -19.5881 -24.2753 87.993
lradius 112.707
lwrist 20.0663
lhand -41.2656 -42.2898
lfingers 7.12502
lthumb -14.1876 -12.7943
rfemur -44.7063 -4.1725 10.4407
rtibia 70.0784
rfoot -10.9146 -4.19099
rtoes 6.90052
lfemur 25.3307 0.162362 -32.3054
ltibia 9.42443
lfoot 7.77634 2.86709
ltoes -3.30867
22
root -22.7857 17.343 -0.510792 114.942 78.8342 110.695
lowerback 12.9975 -4.30276 -18.2428
upperback 1.13953 -8.20053 -0.908844
thorax -3.62563 -3.72259 10.3294
lowerneck -30.1603 5.81093 3.85548
upperneck 17.5542 6.34041 -0.120834
head 10.6459 3.14759 0.44628
rclavicle -6.43068e-014 3.61788e-014
rhumerus -95.4051 14.8795 -94.9473
rradius 95.4818
rwrist -23.3796
rhand -28.4505 -24.3346
rfingers 7.12502
rthumb -1.821 -54.3066
lclavicle -6.43068e-014 3.61788e-014
lhumerus -20.6328 -25.535 88.2813
lradius 114.557
lwrist 20.875
lhand -41.4416 -42.089
lfingers 7.12502
lthumb -14.3572 -12.6055
rfemur -43.8905 -4.31868 10.5302
rtibia 63.8383
rfoot -12.1266 -5.39966
rtoes 10.014
lfemur 26.3779 0.698167 -31.4785
ltibia 9.10641
lfoot 11.6607 3.62895
ltoes -4.02467
23
root -22.2706 17.4429 -0.515028 114.006 78.5962 109.406
lowerback 12.4438 -4.40899 -18.5851
upperback 0.943293 -8.29924 -0.919201
thorax -3.4612 -3.77313 10.4524
lowerneck -30.2257 6.00608 4.14607
upperneck 17.7739 6.51163 -0.234937
head 10.7563 3.22891 0.39617
rclavicle -4.73604e-014 -4.17448e-014
rhumerus -96.2073 14.7644 -95.1183
rradius 95.8574
rwrist -23.2484
rhand -28.5847 -24.8141
rfingers 7.12502
rthumb -1.95057 -54.7849
lclavicle -4.73604e-014 -4.17448e-014
lhumerus -21.7196 -26.5695 88.3661
lradius 116.533
lwrist 22.5664
lhand -39.647 -41.8976
lfingers 7.12502
lthumb -12.6275 -12.2993
rfemur -42.9717 -4.52253 10.3275
rtibia 57.4576
rfoot -12.5665 -5.3426
rtoes 8.87256
lfemur 27.0016 1.45521 -30.88
ltibia 9.49646
lfoot 14.8086 3.75136
ltoes -4.80033
